<svg width="14" height="14" viewBox="0 0 14 14" fill="none" xmlns="http://www.w3.org/2000/svg">
<path fill-rule="evenodd" clip-rule="evenodd" d="M4.06524 1.44024C4.10588 1.3995 4.15416 1.36717 4.20731 1.34512C4.26046 1.32306 4.31744 1.31171 4.37499 1.31171C4.43253 1.31171 4.48952 1.32306 4.54267 1.34512C4.59582 1.36717 4.6441 1.3995 4.68474 1.44024L9.93474 6.69024C9.97548 6.73088 10.0078 6.77916 10.0299 6.83231C10.0519 6.88546 10.0633 6.94244 10.0633 6.99999C10.0633 7.05753 10.0519 7.11452 10.0299 7.16767C10.0078 7.22082 9.97548 7.2691 9.93474 7.30974L4.68474 12.5597C4.60259 12.6419 4.49117 12.688 4.37499 12.688C4.25881 12.688 4.14739 12.6419 4.06524 12.5597C3.98309 12.4776 3.93694 12.3662 3.93694 12.25C3.93694 12.1338 3.98309 12.0224 4.06524 11.9402L9.00636 6.99999L4.06524 2.05974C4.0245 2.0191 3.99217 1.97082 3.97011 1.91767C3.94806 1.86452 3.93671 1.80754 3.93671 1.74999C3.93671 1.69244 3.94806 1.63546 3.97011 1.58231C3.99217 1.52916 4.0245 1.48088 4.06524 1.44024Z" fill="#1F2937"/>
</svg>
