<svg width="62" height="62" viewBox="0 0 62 62" fill="none" xmlns="http://www.w3.org/2000/svg">
<rect x="3.5" y="3.5" width="55" height="55" rx="27.5" fill="#ECFEFF"/>
<rect x="3.5" y="3.5" width="55" height="55" rx="27.5" stroke="#CFFAFE" stroke-width="7"/>
<g clip-path="url(#clip0_24_2205)">
<path d="M20.4375 19.625C20.222 19.625 20.0153 19.7106 19.863 19.863C19.7106 20.0153 19.625 20.222 19.625 20.4375V25.3125C19.625 25.528 19.5394 25.7347 19.387 25.887C19.2347 26.0394 19.028 26.125 18.8125 26.125C18.597 26.125 18.3903 26.0394 18.238 25.887C18.0856 25.7347 18 25.528 18 25.3125V20.4375C18 19.791 18.2568 19.171 18.7139 18.7139C19.171 18.2568 19.791 18 20.4375 18H25.3125C25.528 18 25.7347 18.0856 25.887 18.238C26.0394 18.3903 26.125 18.597 26.125 18.8125C26.125 19.028 26.0394 19.2347 25.887 19.387C25.7347 19.5394 25.528 19.625 25.3125 19.625H20.4375ZM35.875 18.8125C35.875 18.597 35.9606 18.3903 36.113 18.238C36.2653 18.0856 36.472 18 36.6875 18H41.5625C42.209 18 42.829 18.2568 43.2861 18.7139C43.7432 19.171 44 19.791 44 20.4375V25.3125C44 25.528 43.9144 25.7347 43.762 25.887C43.6097 26.0394 43.403 26.125 43.1875 26.125C42.972 26.125 42.7653 26.0394 42.613 25.887C42.4606 25.7347 42.375 25.528 42.375 25.3125V20.4375C42.375 20.222 42.2894 20.0153 42.137 19.863C41.9847 19.7106 41.778 19.625 41.5625 19.625H36.6875C36.472 19.625 36.2653 19.5394 36.113 19.387C35.9606 19.2347 35.875 19.028 35.875 18.8125ZM18.8125 35.875C19.028 35.875 19.2347 35.9606 19.387 36.113C19.5394 36.2653 19.625 36.472 19.625 36.6875V41.5625C19.625 41.778 19.7106 41.9847 19.863 42.137C20.0153 42.2894 20.222 42.375 20.4375 42.375H25.3125C25.528 42.375 25.7347 42.4606 25.887 42.613C26.0394 42.7653 26.125 42.972 26.125 43.1875C26.125 43.403 26.0394 43.6097 25.887 43.762C25.7347 43.9144 25.528 44 25.3125 44H20.4375C19.791 44 19.171 43.7432 18.7139 43.2861C18.2568 42.829 18 42.209 18 41.5625V36.6875C18 36.472 18.0856 36.2653 18.238 36.113C18.3903 35.9606 18.597 35.875 18.8125 35.875ZM43.1875 35.875C43.403 35.875 43.6097 35.9606 43.762 36.113C43.9144 36.2653 44 36.472 44 36.6875V41.5625C44 42.209 43.7432 42.829 43.2861 43.2861C42.829 43.7432 42.209 44 41.5625 44H36.6875C36.472 44 36.2653 43.9144 36.113 43.762C35.9606 43.6097 35.875 43.403 35.875 43.1875C35.875 42.972 35.9606 42.7653 36.113 42.613C36.2653 42.4606 36.472 42.375 36.6875 42.375H41.5625C41.778 42.375 41.9847 42.2894 42.137 42.137C42.2894 41.9847 42.375 41.778 42.375 41.5625V36.6875C42.375 36.472 42.4606 36.2653 42.613 36.113C42.7653 35.9606 42.972 35.875 43.1875 35.875Z" fill="#0D9488"/>
<path d="M22.875 40.75C22.875 40.75 21.25 40.75 21.25 39.125C21.25 37.5 22.875 32.625 31 32.625C39.125 32.625 40.75 37.5 40.75 39.125C40.75 40.75 39.125 40.75 39.125 40.75H22.875ZM35.875 26.125C35.875 27.4179 35.3614 28.6579 34.4471 29.5721C33.5329 30.4864 32.2929 31 31 31C29.7071 31 28.4671 30.4864 27.5529 29.5721C26.6386 28.6579 26.125 27.4179 26.125 26.125C26.125 24.8321 26.6386 23.5921 27.5529 22.6779C28.4671 21.7636 29.7071 21.25 31 21.25C32.2929 21.25 33.5329 21.7636 34.4471 22.6779C35.3614 23.5921 35.875 24.8321 35.875 26.125Z" fill="#059669"/>
</g>
<defs>
<clipPath id="clip0_24_2205">
<rect width="26" height="26" fill="white" transform="translate(18 18)"/>
</clipPath>
</defs>
</svg>
