<svg width="81" height="67" viewBox="0 0 81 67" fill="none" xmlns="http://www.w3.org/2000/svg">
<g clip-path="url(#clip0_94_551)">
<g clip-path="url(#clip1_94_551)">
<path fill-rule="evenodd" clip-rule="evenodd" d="M19.8899 14.6126V14.5L0 51.8084H5.68113L5.6857 51.7992H22.6799L22.6845 51.8084H28.3656L28.361 51.7992H28.3656L28.0369 51.1915L19.8619 35.857L17.0228 41.1842L20.0958 46.9499H8.27042L14.1831 35.8564L17.0222 30.5303V30.5292L19.9014 25.1265L34.1216 51.8078H39.9994V24.6971H35.1501V43.0823L19.9134 14.5L19.8899 14.6126ZM35.1507 19.4619V14.6126H40V19.4619H35.1507Z" fill="#1F2937"/>
</g>
<path d="M58.28 51.5L52.568 42.524L47.192 51.5H41.48L50.024 38.492L41.48 25.052H47.672L53.384 34.028L58.76 25.052H64.472L55.928 38.108L64.472 51.5H58.28Z" fill="#0D9488"/>
</g>
<defs>
<clipPath id="clip0_94_551">
<rect width="81" height="66" fill="white" transform="translate(0 0.5)"/>
</clipPath>
<clipPath id="clip1_94_551">
<rect width="40" height="37.3084" fill="white" transform="translate(0 14.5)"/>
</clipPath>
</defs>
</svg>
