<svg width="40" height="40" viewBox="0 0 40 40" fill="none" xmlns="http://www.w3.org/2000/svg">
<rect x="2" y="2" width="36" height="36" rx="18" stroke="#F3F4F6" stroke-width="4"/>
<path d="M20 1.9884C20 0.890239 20.8924 -0.0102485 21.9852 0.0987449C25.571 0.456402 29.007 1.77809 31.9203 3.94053C35.3678 6.49945 37.9003 10.0998 39.1434 14.2093C40.3864 18.3188 40.2741 22.7193 38.8229 26.76C37.3718 30.8007 34.6588 34.2672 31.0853 36.6468C27.5117 39.0265 23.2672 40.193 18.9794 39.9739C14.6916 39.7549 10.5882 38.1618 7.27574 35.4303C3.96333 32.6988 1.61785 28.9738 0.58609 24.8063C-0.285804 21.2844 -0.180416 17.6045 0.872204 14.1581C1.19298 13.1078 2.36794 12.6316 3.38119 13.055C4.39444 13.4785 4.85952 14.6413 4.56476 15.6992C3.82618 18.3499 3.77974 21.1579 4.44636 23.8506C5.27296 27.1895 7.15207 30.1737 9.80584 32.3621C12.4596 34.5505 15.7471 35.8268 19.1824 36.0023C22.6176 36.1778 26.0181 35.2433 28.8811 33.3368C31.7441 31.4303 33.9176 28.6531 35.0802 25.4158C36.2428 22.1786 36.3328 18.6531 35.3369 15.3608C34.341 12.0684 32.312 9.18391 29.5501 7.1338C27.3226 5.48048 24.7139 4.44061 21.9834 4.10001C20.8936 3.96408 20 3.08657 20 1.9884Z" fill="#065F46"/>
<path d="M8.664 21.624H9.924C10.08 22.404 10.596 22.848 11.508 22.848C12.6 22.848 13.152 22.116 13.152 19.884C12.756 20.436 12 20.736 11.208 20.736C9.672 20.736 8.424 19.788 8.424 17.94C8.424 16.2 9.492 15.048 11.328 15.048C13.584 15.048 14.34 16.596 14.34 19.464C14.34 22.416 13.716 23.988 11.424 23.988C9.612 23.988 8.772 22.872 8.664 21.624ZM11.448 19.584C12.42 19.584 12.996 18.924 12.996 17.94C12.996 16.824 12.36 16.188 11.364 16.188C10.344 16.188 9.732 16.896 9.732 17.904C9.732 18.804 10.236 19.584 11.448 19.584ZM16.2572 15.228H21.5372V16.428H17.5172V18.816C17.8412 18.384 18.5492 18.024 19.3292 18.024C21.4772 18.024 22.1372 19.62 22.1372 20.94C22.1372 22.68 21.1412 24 19.1132 24C17.3132 24 16.2692 23.004 16.0652 21.636H17.3972C17.5772 22.38 18.2012 22.86 19.1252 22.86C20.3012 22.86 20.8292 22.056 20.8292 20.976C20.8292 19.836 20.2652 19.188 19.1252 19.188C18.3212 19.188 17.7812 19.632 17.5532 20.28H16.2572V15.228ZM23.4052 17.364C23.4052 16.176 24.1852 15.492 25.2292 15.492C26.2733 15.492 27.0533 16.176 27.0533 17.364C27.0533 18.564 26.2733 19.248 25.2292 19.248C24.1852 19.248 23.4052 18.564 23.4052 17.364ZM25.2292 16.32C24.7612 16.32 24.4733 16.62 24.4733 17.364C24.4733 18.108 24.7612 18.42 25.2292 18.42C25.6852 18.42 25.9852 18.108 25.9852 17.364C25.9852 16.62 25.6852 16.32 25.2292 16.32ZM24.5932 24L29.3813 15.648H30.7253L25.9373 24H24.5932ZM28.2893 22.272C28.2893 21.072 29.0692 20.4 30.1133 20.4C31.1453 20.4 31.9253 21.072 31.9253 22.272C31.9253 23.472 31.1453 24.156 30.1133 24.156C29.0692 24.156 28.2893 23.472 28.2893 22.272ZM30.1013 21.228C29.6453 21.228 29.3452 21.528 29.3452 22.272C29.3452 23.016 29.6453 23.316 30.1013 23.316C30.5573 23.316 30.8573 23.016 30.8573 22.272C30.8573 21.528 30.5573 21.228 30.1013 21.228Z" fill="#1F2937"/>
</svg>
