<svg width="62" height="62" viewBox="0 0 62 62" fill="none" xmlns="http://www.w3.org/2000/svg">
<rect x="3.5" y="3.5" width="55" height="55" rx="27.5" fill="#ECFEFF"/>
<rect x="3.5" y="3.5" width="55" height="55" rx="27.5" stroke="#CFFAFE" stroke-width="7"/>
<g clip-path="url(#clip0_76_481)">
<path d="M35.875 27.75C35.875 29.0429 35.3614 30.2829 34.4471 31.1971C33.5329 32.1114 32.2929 32.625 31 32.625C29.7071 32.625 28.4671 32.1114 27.5529 31.1971C26.6386 30.2829 26.125 29.0429 26.125 27.75C26.125 26.4571 26.6386 25.2171 27.5529 24.3029C28.4671 23.3886 29.7071 22.875 31 22.875C32.2929 22.875 33.5329 23.3886 34.4471 24.3029C35.3614 25.2171 35.875 26.4571 35.875 27.75V27.75Z" fill="#0D9488"/>
<path fill-rule="evenodd" clip-rule="evenodd" d="M18 31C18 27.5522 19.3696 24.2456 21.8076 21.8076C24.2456 19.3696 27.5522 18 31 18C34.4478 18 37.7544 19.3696 40.1924 21.8076C42.6304 24.2456 44 27.5522 44 31C44 34.4478 42.6304 37.7544 40.1924 40.1924C37.7544 42.6304 34.4478 44 31 44C27.5522 44 24.2456 42.6304 21.8076 40.1924C19.3696 37.7544 18 34.4478 18 31V31ZM31 19.625C28.8579 19.6251 26.7593 20.2301 24.9459 21.3703C23.1325 22.5105 21.6778 24.1396 20.7494 26.0701C19.821 28.0005 19.4566 30.1539 19.6981 32.2824C19.9396 34.4108 20.7772 36.4278 22.1145 38.1012C23.2683 36.2422 25.8081 34.25 31 34.25C36.1919 34.25 38.7301 36.2406 39.8855 38.1012C41.2228 36.4278 42.0604 34.4108 42.3019 32.2824C42.5434 30.1539 42.179 28.0005 41.2506 26.0701C40.3222 24.1396 38.8675 22.5105 37.0541 21.3703C35.2407 20.2301 33.1421 19.6251 31 19.625V19.625Z" fill="#059669"/>
</g>
<defs>
<clipPath id="clip0_76_481">
<rect width="26" height="26" fill="white" transform="translate(18 18)"/>
</clipPath>
</defs>
</svg>
